<svg width="295" height="278" viewBox="0 0 295 278" fill="none" xmlns="http://www.w3.org/2000/svg">
<path fill-rule="evenodd" clip-rule="evenodd" d="M93.2635 30.8055C119.764 -6.69393 165.764 -13.6942 200.763 30.8055C200.847 30.9408 269.277 141.83 290.763 181.306C301.263 213.305 293.317 256.205 243.763 276.806C234.775 276.806 60.2158 277.803 59.7634 277.806C17.4079 270.409 -11.2364 224.806 4.26345 181.306C4.42392 181.015 66.7975 68.2571 93.2635 30.8055Z" fill="url(#paint0_linear_192_33)"/>
<path d="M87.2613 164.096C102.048 184.387 122.397 204.501 145 222C178.659 192.806 193.519 179.015 204.999 164.096C216.499 147 219 125.5 202.362 110.387C186.999 94.0005 157.999 99.5005 146.862 123.586C139.362 103.086 112.261 91.8866 90.2613 110.386C78.9554 119.894 73.2613 144.887 87.2613 164.096Z" fill="white"/>
<defs>
<linearGradient id="paint0_linear_192_33" x1="182.881" y1="34.1986" x2="183.192" y2="316.56" gradientUnits="userSpaceOnUse">
<stop stop-color="#86FD33"/>
<stop offset="1" stop-color="#CBF748"/>
</linearGradient>
</defs>
</svg>
